<svg width="183" height="42" viewBox="0 0 183 42" fill="none" xmlns="http://www.w3.org/2000/svg">
<g clip-path="url(#clip0_265_33)">
<path d="M148.723 19.5337V15.3311C148.723 4.91346 141.215 0.197266 134.255 0.197266C124.649 0.197266 117.987 7.81748 117.987 16.9785C117.987 26.7501 124.255 32.7746 132.08 32.7746C137.796 32.7746 141.05 30.5004 143.158 28.4492C143.752 29.4797 144.259 30.2 144.756 30.8202C145.563 31.7926 146.46 32.248 147.503 32.248C148.08 32.248 148.684 32.1091 149.33 31.8313C150.595 31.2822 151.405 30.4746 151.667 29.4797C151.944 28.4492 151.605 27.4575 151.195 26.8761C149.752 24.715 148.726 21.698 148.726 19.5369M140.201 16.171C139.901 21.4105 136.999 25.9264 132.002 25.4612C128.109 25.1091 125.824 20.955 126.537 15.8286C127.26 10.7086 130.453 7.11328 134.559 7.45246C138.577 7.66242 140.469 11.0413 140.204 16.1742" fill="#00A7E1"/>
<path d="M161.296 35.9337C159.753 39.8941 160.318 40.9988 161.87 41.6126C164.553 42.6818 168.3 41.5383 169.624 38.1368L182.09 6.06342C183.626 2.10634 183.068 1.00482 181.512 0.387836C178.833 -0.681384 175.085 0.462132 173.762 3.86361L169.249 15.4861L162.706 3.19171C161.008 -0.00302733 157.161 -0.697536 154.617 0.662409C153.142 1.4506 152.706 2.59088 154.685 6.30569L165.163 26.0071L161.299 35.937L161.296 35.9337Z" fill="#00A7E1"/>
<path d="M109.949 0.203426C107.154 0.203426 105.62 1.45354 105.178 3.7438L101.95 21.885C101.931 21.9916 101.776 21.9948 101.75 21.8915L97.5635 4.56106C96.7824 1.54722 95.8883 0.200195 93.3253 0.200195C90.7623 0.200195 89.865 1.54722 89.0806 4.56106L84.894 21.8915C84.8714 21.9948 84.7165 21.9884 84.6971 21.885L81.4692 3.7438C81.0334 1.45031 79.4969 0.203426 76.7015 0.203426C74.7228 0.203426 72.9184 1.26619 73.309 2.97823L79.1096 28.5975C79.6551 31.0073 81.8178 32.4965 84.5002 32.4965C87.1826 32.4965 89.5099 30.9169 90.1135 28.5975L93.3253 15.0336L96.5338 28.5975C97.1407 30.9169 99.355 32.4965 102.15 32.4965C104.946 32.4965 106.989 31.0105 107.538 28.5975L113.342 2.97823C113.722 1.26619 111.925 0.203426 109.946 0.203426" fill="#00A7E1"/>
<path d="M52.0243 0.197266C41.1494 0.197266 35.4651 7.49445 35.4651 16.4843C35.4651 25.4741 41.1494 32.7746 52.0243 32.7746C62.8991 32.7746 68.5835 25.4741 68.5835 16.4843C68.5835 7.49445 62.9056 0.197266 52.0243 0.197266ZM52.0243 25.5226C47.3858 25.5226 43.9706 22.1599 43.9706 16.4843C43.9706 10.8087 47.3858 7.446 52.0243 7.446C56.6628 7.446 60.0779 10.8152 60.0779 16.4843C60.0779 22.1534 56.666 25.5226 52.0243 25.5226Z" fill="#00A7E1"/>
<path d="M27.7181 22.9061C24.6483 25.7875 19.6967 26.4335 16.7432 26.0362C12.5404 25.4806 8.50555 22.8512 8.50555 16.4843C8.50555 10.8152 11.9239 7.446 16.5624 7.446C19.658 7.446 21.627 8.45061 23.8575 10.2014C26.6238 12.3754 30.2681 9.53921 29.8388 6.85809C29.3708 3.88947 23.9866 0.197266 16.5592 0.197266C5.68435 0.197266 0 7.49122 0 16.4843C0 24.967 5.01617 32.7746 17.3468 32.7746C23.8543 32.7746 28.5347 30.087 29.2094 26.4335C29.5063 24.841 28.5218 23.3745 27.7181 22.9061Z" fill="#00A7E1"/>
</g>
<defs>
<clipPath id="clip0_265_33">
<rect width="183" height="42" fill="white"/>
</clipPath>
</defs>
</svg>
